<svg width="24" height="24" viewBox="0 0 24 24" fill="none" xmlns="http://www.w3.org/2000/svg">
<path d="M3.69211 16.0999V5.776H2.11052C0.941432 5.776 0 6.73205 0 7.9001V21.8582C0 23.0278 0.941432 23.9734 2.11052 23.9734H16.0691C17.2377 23.9734 18.1974 23.0278 18.1974 21.8582V20.3335H7.92568C5.60421 20.334 3.69211 18.4219 3.69211 16.0999Z" fill="#7B8282"/>
<path d="M21.8848 0.026123H7.92568C6.75711 0.026123 5.80263 0.972777 5.80263 2.14134V16.0999C5.80263 17.2701 6.75764 18.2235 7.92568 18.2235H21.8848C23.0528 18.2235 24 17.2701 24 16.0999V2.14187C24 0.972255 23.0528 0.026123 21.8848 0.026123ZM21.5976 14.9277C21.4812 15.1428 21.2572 15.2702 21.0128 15.2702H9.05195C8.84153 15.2702 8.64363 15.1762 8.51832 15.0081C8.393 14.8389 8.35489 14.6238 8.41545 14.4217L10.1265 8.76218C10.2393 8.38989 10.5536 8.11471 10.9379 8.05154C11.3223 7.98888 11.7086 8.15074 11.9342 8.46769L14.3267 11.8288C14.6489 12.2815 15.2728 12.3937 15.7307 12.0815L17.9337 10.5855C18.1603 10.4315 18.4386 10.3756 18.7065 10.4294C18.9754 10.4827 19.2109 10.6424 19.3607 10.8722L21.5689 14.2515C21.7025 14.4567 21.7135 14.7136 21.5976 14.9277Z" fill="#7B8282"/>
</svg>
