<svg width="106" height="106" viewBox="0 0 106 106" fill="none" xmlns="http://www.w3.org/2000/svg">
<path fill-rule="evenodd" clip-rule="evenodd" d="M0 53.1914C0 24.1172 23.7296 1.15576 53 1.15576C82.2704 1.15576 106 24.1172 106 53.1914C106 53.8739 105.987 54.554 105.959 55.2315C105.875 57.4492 105.039 59.634 104.684 61.773C104.148 65.0337 103.921 68.1953 102.807 71.2276C95.3959 91.4181 75.8916 105.227 53 105.227C23.7296 105.227 0 82.2655 0 53.1914Z" fill="white"/>
<path fill-rule="evenodd" clip-rule="evenodd" d="M0.308685 55.8688C1.85589 83.816 24.8604 106 53.0867 106C75.3202 106 94.3498 92.2359 102.185 72.7342C104.223 67.3568 105.539 61.3101 105.926 54.5838L105.903 50.8567L105.806 50.7826C100.531 45.2085 95.1107 37.5677 89.2807 32.1341C87.8912 33.6669 84.8376 38.6815 82.4786 38.6815C79.5623 38.6815 74.9817 31.2988 71.7881 31.2988C68.8744 31.2988 64.7086 40.4927 62.0722 40.4927C61.1001 40.4927 60.8228 40.3522 59.9881 39.1005C55.8249 33.1074 52.2139 26.8385 48.3281 20.9885C48.1881 20.71 46.2465 17.923 45.4118 17.923C43.3302 17.923 34.7238 30.4609 34.1691 31.2988C33.197 32.691 32.0849 34.0833 30.8355 35.3376C30.5581 35.616 30.2807 35.616 29.8659 35.616C28.3365 35.616 26.1175 32.2721 24.3107 32.2721C21.6133 32.2721 3.85606 52.1902 0.308685 55.8688Z" fill="#95BB65"/>
<path fill-rule="evenodd" clip-rule="evenodd" d="M24.9418 7.87324L24.9316 7.87835L24.924 7.88346L24.9138 7.88857L24.9036 7.89623L24.896 7.90134L24.8858 7.909L24.8756 7.91411L24.8654 7.92177L24.8553 7.92688C10.4265 17.08 0.774321 33.041 0.247559 51.314C1.16876 50.2257 20.2925 29.5566 24.6771 29.5566C26.4763 29.5566 28.1354 30.3868 30.212 32.6068C32.9781 28.9997 35.6068 25.2546 38.2355 21.9235C39.6199 20.1199 43.3556 14.9852 45.8443 14.9852C49.1652 14.9852 57.1914 29.5566 58.2983 31.3601C59.5427 33.4395 60.927 35.5215 62.4488 37.4656C64.9401 34.5508 68.121 28.5833 71.9942 28.5833C76.0072 28.5833 81.1273 35.8 82.649 35.8C83.8934 35.8 87.2143 30.2489 88.3213 29.4161C88.5986 29.1402 89.0134 29.1402 89.4282 29.1402C91.6472 29.1402 103.101 42.5977 105.335 45.1702C103.623 33.345 98.1542 22.7818 90.0211 14.8217C84.8426 9.95267 78.7759 6.08503 73.0477 3.65561C71.0577 2.8407 69.0041 2.1433 66.9021 1.57363C66.1361 1.38714 65.3905 1.23131 64.6627 1.11125C62.034 0.694848 59.2653 0.27845 56.4992 0H49.58C46.9513 0.27845 44.0477 0.5569 41.5564 1.11125C39.2051 1.66559 36.7138 2.36044 34.4999 3.19323C32.8407 3.74758 31.0415 4.58037 29.6572 5.27267C28.2754 5.96752 26.6137 6.93826 25.3693 7.63311L25.354 7.64077L25.3362 7.65099L25.3235 7.65865L25.3133 7.66376L25.3006 7.67143L25.2879 7.67909L25.2751 7.68675L25.265 7.69186L25.2522 7.69953L25.2395 7.70719L25.2293 7.7123L25.2192 7.71741L25.2115 7.72252L25.2013 7.72763L25.1937 7.73274L25.1861 7.73529L25.1784 7.7404L25.1734 7.74295L25.1657 7.74806L25.1581 7.75062L25.1505 7.75573L25.1428 7.75828L25.1352 7.76339L25.1301 7.76594L25.1225 7.77105L25.1148 7.77361L25.1072 7.77872L25.1021 7.78127L25.0945 7.78638L25.0894 7.78894L25.0817 7.79405L25.0741 7.7966L25.0665 7.80171L25.0588 7.80682L25.0512 7.80937L25.0436 7.81448L25.0359 7.81704L25.0283 7.82215L25.0207 7.82725L25.013 7.82981L25.0054 7.83492L24.9978 7.84003L24.9901 7.84514L24.9825 7.85025L24.9749 7.85536L24.9672 7.86046L24.9596 7.86302L24.9494 7.86813L24.9418 7.87324Z" fill="#67CFE5"/>
<path fill-rule="evenodd" clip-rule="evenodd" d="M28.1025 72.1517C28.1025 71.8043 28.0236 71.651 27.8709 71.651C26.9904 71.651 25.9165 72.1517 25.036 72.1517C23.5804 72.1517 23.5041 71.4185 23.5041 68.7617V67.5279C23.5041 56.1216 23.695 49.9447 23.8884 49.0889C24.041 48.2714 25.4585 47.6762 27.451 47.6762C31.2808 47.6762 33.7696 50.3917 33.7696 54.6706C33.7696 59.2485 31.0518 61.964 26.3771 61.964H25.4585C24.8833 61.964 24.8452 62.0279 24.8452 62.4826C24.8452 62.9679 24.9979 63.0982 26.1481 63.0982C32.9273 63.0982 37.2585 59.4349 37.2585 53.8532C37.2585 49.2013 33.9834 46.1613 27.7945 46.1613C24.5398 46.1613 21.565 46.9941 18.2008 48.4553C17.0303 48.9407 16.5391 49.0889 16.5391 49.5717C16.5391 49.8323 16.6918 50.0187 16.8419 50.0187C17.4832 50.0187 18.8039 49.0148 20.1603 49.0148C20.7659 49.0148 20.8016 50.3176 20.8016 53.5543V55.8994C20.8016 65.7167 20.6896 71.5743 20.3868 72.9998C20.1985 73.922 19.4071 74.1545 19.4071 74.5632C19.4071 74.7471 19.5572 74.9336 19.7455 74.9336C20.0102 74.9336 21.6693 73.9629 25.4966 73.1148C27.4892 72.6907 28.1025 72.8823 28.1025 72.1517Z" fill="black"/>
<path fill-rule="evenodd" clip-rule="evenodd" d="M41.5642 65.2848C41.5261 64.756 41.5261 64.452 41.5261 64.3396C41.5261 61.2766 43.2896 59.1589 45.3585 59.1589C46.6232 59.1589 47.5062 60.0274 47.5062 61.2C47.5062 63.2053 45.3203 64.9067 41.5642 65.2848ZM41.6788 66.6847C47.809 65.0191 50.9187 63.2053 50.9187 61.8054C50.9187 59.2355 49.0229 57.6312 46.2033 57.6312C42.063 57.6312 38.8235 61.504 38.8235 66.6464C38.8235 71.4107 41.2512 74.2003 46.2033 74.2003C49.4021 74.2003 49.8576 73.7737 50.6541 72.8029C52.5423 70.5395 53.3719 69.0272 53.3719 68.6108C53.3719 68.3477 53.1454 68.1204 52.8807 68.1204C52.5423 68.1204 52.354 68.6108 51.7865 69.2929C50.4276 70.8435 49.0229 71.5614 46.7784 71.5614C43.8265 71.5614 42.063 69.8984 41.6788 66.6847Z" fill="black"/>
<path fill-rule="evenodd" clip-rule="evenodd" d="M65.5816 65.4101C65.5816 65.6783 65.6198 65.9108 65.6198 66.1432C65.6198 70.2306 63.1717 72.3126 60.403 72.3126C58.978 72.3126 58.0288 71.4644 58.0288 70.2306C58.0288 68.1486 60.6804 66.2199 65.5816 65.4101ZM65.2279 71.0787C65.546 73.1684 66.5969 74.1672 68.4724 74.1672C69.9815 74.1672 71.9434 73.4545 71.9434 73.0253C71.9434 72.2742 71.2258 72.7775 70.1316 72.3126C68.7371 71.656 68.2459 70.3072 68.2459 68.0311C68.2459 66.6439 68.3986 65.0243 68.3986 63.1339C68.3986 59.2229 67.5334 57.616 63.7265 57.616C60.0875 57.616 58.5454 58.2138 58.5454 60.2421C58.5454 60.4337 58.5835 60.5512 58.7031 60.5512C59.2553 60.5512 60.403 59.933 62.2225 59.933C64.4772 59.933 65.546 61.2435 65.546 63.9821V64.4061C58.3469 65.5633 54.9344 68.2635 54.9344 71.4261C54.9344 73.1684 56.11 74.1672 58.1484 74.1672C60.5608 74.1672 63.1717 73.0968 65.2279 71.0787Z" fill="black"/>
<path fill-rule="evenodd" clip-rule="evenodd" d="M73.5747 72.9332C73.5747 73.0073 73.6103 73.2704 73.6103 73.6408C73.6103 74.047 73.6459 74.1594 73.9335 74.1594C74.0429 74.1594 74.5824 73.789 75.8064 73.158C76.239 72.9332 76.2747 72.7825 76.2747 72.3354V66.6489H76.7658C77.2569 66.6489 77.7481 66.6106 78.2367 66.5391C82.8019 71.1756 85.5172 73.7532 88.0823 73.7532C89.2147 73.7532 89.8178 73.3445 89.8178 73.0456C89.8178 72.5602 88.0823 72.1106 83.7435 67.9569L80.6898 65.0727C83.7817 61.7237 85.026 59.0362 85.026 58.5943C85.026 58.298 84.7996 58.0042 84.5375 58.0042C84.3848 58.0042 83.4814 58.2264 81.4812 58.3363C80.4633 58.3721 80.1223 58.298 80.1223 58.8523C80.1223 59.3326 80.3132 59.3683 80.6135 59.3683H80.8399C81.3692 59.3683 81.7459 59.6621 81.7459 60.1424C81.7459 60.5818 81.2166 62.3853 79.9722 64.0432C78.9161 65.4048 78.1985 65.5147 77.0686 65.5147H76.2747V51.8757C76.2747 49.8474 76.2747 48.6978 77.1068 48.0081C77.6717 47.5483 78.313 47.5099 78.313 47.0603C78.313 46.8023 78.1247 46.5801 77.9364 46.5801C77.7099 46.5801 76.7658 47.0603 74.9794 47.5483C73.6459 47.9315 73.31 47.8165 73.31 48.4296C73.31 48.6595 73.5747 49.8091 73.5747 52.1823V72.9332Z" fill="black"/>
<path fill-rule="evenodd" clip-rule="evenodd" d="M34.4006 90.6164C31.1255 90.6164 28.6978 88.1205 28.6978 84.5722C28.6978 81.0775 31.0517 78.7248 34.3293 78.7248C37.4594 78.7248 39.8311 81.2206 39.8311 84.8379C39.8311 88.3147 37.6044 90.6164 34.4006 90.6164ZM41.6506 84.6259C41.6506 80.7199 38.8895 77.9993 34.4006 77.9993C29.9117 77.9993 26.8783 80.8093 26.8783 84.7689C26.8783 88.7975 29.6572 91.347 34.0392 91.347C38.6172 91.347 41.6506 88.6723 41.6506 84.6259Z" fill="white"/>
<path fill-rule="evenodd" clip-rule="evenodd" d="M44.5058 91.0558C44.5058 91.2499 44.5237 91.3751 44.6433 91.3751C44.6789 91.3751 44.712 91.3751 44.7476 91.3572L45.7273 91.0021C45.7629 90.1668 45.796 88.68 45.796 86.5367C45.796 86.0462 45.7808 85.6656 45.7808 85.3565C46.2948 84.8302 46.8979 84.539 47.4857 84.539C48.8548 84.539 49.3867 85.6835 49.3867 87.934C49.3867 90.2587 48.977 91.1809 48.977 91.2857C48.9719 91.4747 49.0635 91.5641 49.1882 91.5641C49.3332 91.5641 49.6997 91.2627 50.5038 90.9536C51.3436 90.6394 51.7227 90.6956 51.7227 90.4018C51.7227 90.2357 51.6693 90.108 51.5599 90.108C51.3614 90.108 51.1451 90.2715 50.9466 90.2715C50.659 90.2715 50.5903 90.1616 50.5903 89.8857C50.5903 89.3544 50.6769 88.3428 50.6769 86.8918C50.6769 84.6872 50.2595 83.6526 48.8472 83.6526C48.2161 83.6526 47.0073 83.931 45.6204 84.705C45.4016 83.8952 44.8494 83.4686 44.6967 83.4686C44.628 83.4686 44.3633 83.7522 43.5694 84.0766C43.119 84.2554 42.8492 84.2733 42.8492 84.4189C42.8492 84.6003 42.9205 84.6897 43.0299 84.6897C43.1368 84.6897 43.2462 84.6361 43.3887 84.6361C44.2183 84.6361 44.5058 85.4689 44.5058 87.0067V91.0558Z" fill="white"/>
<path fill-rule="evenodd" clip-rule="evenodd" d="M53.8908 87.9238C53.8908 90.6214 53.5854 91.3546 53.5854 91.444C53.5854 91.6024 53.7305 91.7429 53.8908 91.7429C54.102 91.7429 54.4837 91.2652 55.4711 90.8539C56.1913 90.5678 56.6417 90.5678 56.6417 90.3021C56.6417 90.1412 56.5348 90.016 56.4432 90.016C56.3541 90.016 56.0284 90.1948 55.6518 90.1948C55.2192 90.1948 55.181 89.7656 55.181 88.3172V87.3005C55.181 82.7099 55.2014 80.048 55.4355 79.2969C55.6136 78.7247 56.2447 78.6532 56.2447 78.4565C56.2447 78.2981 56.1378 78.1934 56.0462 78.1934C55.9215 78.1934 55.4355 78.4233 54.4685 78.6353C53.8552 78.7784 53.7483 78.7068 53.7483 78.9929C53.7483 79.1181 53.873 79.9407 53.873 81.5118C53.873 81.8873 53.8908 82.4238 53.8908 83.1544V87.9238Z" fill="white"/>
<path fill-rule="evenodd" clip-rule="evenodd" d="M60.609 86.409C60.5403 84.7817 60.6268 83.8774 60.6268 83.7343C60.6268 83.6091 60.4512 83.4686 60.3495 83.4686C60.2095 83.4686 59.7769 83.7164 58.9626 83.9847C58.2322 84.2197 57.8531 84.2197 57.8531 84.4189C57.8531 84.6182 57.9421 84.7459 58.0694 84.7459C58.1788 84.7459 58.3391 84.6361 58.5198 84.6361C59.1483 84.5645 59.1661 85.0703 59.1661 86.0641V90.4248C59.1661 91.0557 59.1661 91.3751 59.3087 91.3751C59.3265 91.3751 59.7234 91.2346 60.3367 91.0379C60.5174 90.9663 60.5912 90.8769 60.5912 90.7134C60.5912 90.6777 60.609 90.5883 60.609 90.4069V86.409ZM59.6904 78.7656C59.1712 78.7656 58.7717 79.1999 58.7717 79.7057C58.7717 80.209 59.1712 80.6254 59.6904 80.6254C60.1917 80.6254 60.6268 80.2447 60.6268 79.7057C60.6268 79.1999 60.2095 78.7656 59.6904 78.7656Z" fill="white"/>
<path fill-rule="evenodd" clip-rule="evenodd" d="M64.0292 91.0558C64.0292 91.2499 64.0445 91.3751 64.1666 91.3751C64.1997 91.3751 64.2353 91.3751 64.2684 91.3572L65.2507 91.0021C65.2838 90.1668 65.3194 88.68 65.3194 86.5367C65.3194 86.0462 65.3016 85.6656 65.3016 85.3565C65.8156 84.8302 66.4213 84.539 67.0066 84.539C68.3756 84.539 68.9075 85.6835 68.9075 87.934C68.9075 90.2587 68.5003 91.1809 68.5003 91.2857C68.4927 91.4747 68.5843 91.5641 68.709 91.5641C68.854 91.5641 69.223 91.2627 70.0246 90.9536C70.8644 90.6394 71.2436 90.6956 71.2436 90.4018C71.2436 90.2357 71.1901 90.108 71.0807 90.108C70.8848 90.108 70.6684 90.2715 70.47 90.2715C70.1824 90.2715 70.1111 90.1616 70.1111 89.8857C70.1111 89.3544 70.1977 88.3428 70.1977 86.8918C70.1977 84.6872 69.7803 83.6526 68.368 83.6526C67.7369 83.6526 66.5307 83.931 65.1413 84.705C64.9224 83.8952 64.3727 83.4686 64.2175 83.4686C64.1488 83.4686 63.8842 83.7522 63.0902 84.0766C62.6398 84.2554 62.37 84.2733 62.37 84.4189C62.37 84.6003 62.4413 84.6897 62.5507 84.6897C62.6576 84.6897 62.767 84.6361 62.9121 84.6361C63.7391 84.6361 64.0292 85.4689 64.0292 87.0067V91.0558Z" fill="white"/>
<path fill-rule="evenodd" clip-rule="evenodd" d="M73.7832 87.1344C73.7653 86.8815 73.7653 86.7385 73.7653 86.6848C73.7653 85.221 74.6077 84.2094 75.595 84.2094C76.2007 84.2094 76.6231 84.6258 76.6231 85.1853C76.6231 86.1433 75.5772 86.9556 73.7832 87.1344ZM73.8391 87.8037C76.7656 87.0093 78.2517 86.1433 78.2517 85.474C78.2517 84.2452 77.3458 83.4788 75.9996 83.4788C74.0224 83.4788 72.4752 85.3283 72.4752 87.7859C72.4752 90.062 73.6356 91.3929 75.9996 91.3929C77.529 91.3929 77.7453 91.1911 78.1245 90.7262C79.0279 89.6456 79.4249 88.9226 79.4249 88.7259C79.4249 88.5982 79.3154 88.4909 79.1907 88.4909C79.0279 88.4909 78.9363 88.7259 78.6665 89.0504C78.0176 89.7912 77.3458 90.1335 76.2745 90.1335C74.8647 90.1335 74.0224 89.339 73.8391 87.8037Z" fill="white"/>
</svg>
