<svg width="360" height="640" viewBox="0 0 360 640" fill="none" xmlns="http://www.w3.org/2000/svg">
<rect width="360" height="640" fill="white"/>
<path fill-rule="evenodd" clip-rule="evenodd" d="M0 0H360L359.724 640H0V0Z" fill="#67CFE5"/>
<path fill-rule="evenodd" clip-rule="evenodd" d="M157.026 104C143.917 104 116.182 151.603 114.113 154.776C110.387 160.02 106.11 165.401 101.418 170.092C100.314 171.196 99.3484 171.196 97.6926 171.196C91.8973 171.196 86.5159 158.502 76.4431 158.502C66.3703 158.502 48.9843 172.3 29.8045 194.79C12.8325 214.521 1.24186 237.288 0 238.392L0.827903 435.15L359.586 434.598L360 196.584C360 196.584 329.644 157.95 322.054 157.95C314.465 157.95 307.566 182.786 298.597 182.786C287.42 182.786 269.897 154.776 257.754 154.776C246.577 154.776 230.709 189.685 220.636 189.685C216.911 189.685 215.945 189.133 212.633 184.442C196.765 161.675 170.134 104 157.026 104Z" fill="white"/>
<path fill-rule="evenodd" clip-rule="evenodd" d="M156.888 118.212C143.779 118.212 116.044 165.815 113.975 168.988C110.249 174.231 105.972 179.613 101.28 184.304C100.176 185.408 99.2104 185.408 97.5546 185.408C91.7593 185.408 86.3779 172.714 76.3051 172.714C66.2323 172.714 48.9843 186.512 29.6665 209.002C12.8325 228.733 1.24186 251.5 0 252.742L0.413952 639.5L359.862 638.948L359.586 210.934C359.586 210.934 329.23 172.3 321.641 172.3C314.051 172.3 307.152 197.136 298.183 197.136C287.007 197.136 269.621 169.126 257.34 169.126C246.163 169.126 230.295 204.035 220.222 204.035C216.497 204.035 215.393 203.483 212.219 198.792C196.627 176.025 169.996 118.212 156.888 118.212Z" fill="#95BB65"/>
<path fill-rule="evenodd" clip-rule="evenodd" d="M120 319.5C120 286.701 146.554 260 179.5 260C212.446 260 239 286.701 239 319.5C239 352.299 212.446 379 179.5 379C146.554 379 120 352.299 120 319.5Z" fill="white"/>
<path fill-rule="evenodd" clip-rule="evenodd" d="M128 335.245V338.212L128.656 341.673L231.428 336.399L230.117 327.993L215.201 306.731L184.386 300.303L169.47 298.16L139.31 315.137L128 335.245Z" fill="white"/>
<path fill-rule="evenodd" clip-rule="evenodd" d="M161.72 324.267C158.442 324.267 155.983 322.124 155.983 319.157C155.983 316.19 158.442 314.213 161.72 314.213C164.998 314.213 167.293 316.355 167.293 319.487C167.129 322.289 164.998 324.267 161.72 324.267ZM167.949 319.157C167.949 315.861 166.146 313.388 161.556 313.388C156.967 313.388 155 316.026 155 319.322C155 322.783 156.803 325.091 161.229 325.091C165.982 324.926 167.949 322.454 167.949 319.157Z" fill="white"/>
<path fill-rule="evenodd" clip-rule="evenodd" d="M171.883 324.267C171.883 324.761 171.883 324.926 172.047 324.926L172.703 324.102C172.703 323.442 172.703 322.124 172.703 320.146C172.703 319.652 172.703 319.322 172.703 319.157C173.194 318.663 173.85 318.498 174.506 318.498C175.981 318.498 176.636 319.487 176.636 321.465C176.636 323.442 176.145 324.431 176.145 324.761C176.145 324.761 176.309 324.926 176.473 324.926C176.636 324.926 176.8 324.267 177.292 323.937C177.948 323.607 178.44 323.772 178.44 323.442C178.44 323.278 178.44 323.113 178.276 323.113C178.112 323.113 177.948 323.278 177.784 323.278C177.456 323.278 177.456 323.113 177.456 322.948C177.456 322.454 177.456 321.629 177.456 320.311C177.456 318.498 177.128 317.509 176.145 317.509C175.489 317.509 174.506 317.839 173.194 318.498C172.539 318.333 172.211 317.509 172.047 317.509C172.047 317.509 171.719 318.168 171.063 318.498C170.572 318.663 170.408 318.663 170.408 318.828C170.408 318.992 170.408 318.992 170.572 318.992C170.736 318.992 170.736 318.992 170.9 318.992C171.719 318.992 171.883 319.652 171.883 321.135V324.267Z" fill="white"/>
<path fill-rule="evenodd" clip-rule="evenodd" d="M181.226 322.124C181.226 324.431 180.898 325.091 180.898 325.255C180.898 325.585 181.062 325.915 181.226 325.915C181.39 325.915 181.554 325.091 182.373 324.596C183.029 324.267 183.521 324.267 183.521 324.102C183.521 323.937 183.357 323.937 183.357 323.937C183.357 323.937 183.029 324.102 182.701 324.102C182.373 324.102 182.209 323.772 182.209 322.454V321.629C182.209 317.674 182.21 315.366 182.373 314.707C182.537 314.213 183.193 314.213 183.193 313.883C183.193 313.553 183.029 313.224 183.029 313.224C182.865 313.224 182.537 313.718 181.718 314.048C181.39 314.213 181.226 314.048 181.226 314.377C181.226 314.542 181.39 315.201 181.39 316.52C181.39 316.85 181.39 317.344 181.39 317.839V322.124H181.226Z" fill="white"/>
<path fill-rule="evenodd" clip-rule="evenodd" d="M186.799 320.146C186.799 319.322 186.799 318.498 186.799 318.333C186.799 318.003 186.635 317.674 186.635 317.674C186.635 317.674 186.471 318.168 185.979 318.663C185.324 318.827 184.996 318.827 184.996 318.992C184.996 319.157 185.16 319.322 185.16 319.322C185.324 319.322 185.488 319.157 185.652 319.157C185.815 318.498 185.815 318.992 185.815 319.816V323.607C185.815 324.267 185.815 324.926 185.979 324.926C185.979 324.926 186.143 324.596 186.635 324.102C186.799 324.102 186.799 323.937 186.799 323.772C186.799 323.772 186.799 323.607 186.799 323.442V320.146ZM186.471 314.213C186.307 314.213 185.979 314.542 185.979 315.037C185.979 315.531 186.143 315.861 186.471 315.861C186.635 315.861 186.963 315.531 186.963 315.037C186.799 314.542 186.635 314.213 186.471 314.213Z" fill="white"/>
<path fill-rule="evenodd" clip-rule="evenodd" d="M190.733 324.267C190.733 324.761 190.733 324.926 190.897 324.926L191.552 324.102C191.552 323.442 191.552 322.124 191.552 320.146C191.552 319.652 191.552 319.322 191.552 319.157C192.044 318.663 192.7 318.498 193.355 318.498C194.831 318.498 195.486 319.487 195.486 321.465C195.486 323.442 194.994 324.431 194.994 324.761C194.994 324.761 195.158 324.926 195.322 324.926C195.486 324.926 195.65 324.267 196.306 323.937C196.961 323.607 197.289 323.772 197.289 323.442C197.289 323.278 197.289 323.113 197.125 323.113C196.961 323.113 196.798 323.278 196.634 323.278C196.306 323.278 196.306 323.113 196.306 322.948C196.306 322.454 196.306 321.629 196.306 320.311C196.306 318.498 195.978 317.509 194.994 317.509C194.339 317.509 193.355 317.839 192.044 318.498C191.388 318.333 191.061 317.509 190.897 317.509C190.897 317.509 190.733 318.168 189.913 318.498C189.421 318.663 189.258 318.663 189.258 318.828C189.258 318.992 189.258 318.992 189.421 318.992C189.585 318.992 189.585 318.992 189.749 318.992C190.569 318.992 190.733 319.652 190.733 321.135V324.267Z" fill="white"/>
<path fill-rule="evenodd" clip-rule="evenodd" d="M199.912 321.3C199.912 321.135 199.912 320.97 199.912 320.805C199.912 319.322 200.731 318.498 201.879 318.498C202.534 318.498 202.862 318.827 202.862 319.487C202.862 320.311 201.715 321.135 199.912 321.3ZM200.076 321.959C203.026 321.135 203.682 320.311 203.682 319.816C203.682 318.663 203.19 317.839 202.207 317.839C200.24 317.839 199.092 319.652 199.092 321.959C199.092 324.102 199.748 324.926 202.207 324.926C203.354 324.926 203.354 324.761 203.518 324.431C204.337 323.607 204.665 322.948 204.665 322.783C204.665 322.618 204.501 322.618 204.501 322.618C204.337 322.618 204.337 322.783 204.01 323.113C203.518 323.772 203.19 324.102 202.534 324.102C201.059 324.267 200.24 323.442 200.076 321.959Z" fill="white"/>
<path fill-rule="evenodd" clip-rule="evenodd" d="M126.051 319.693C126.051 290.372 149.981 267.216 179.5 267.216C209.018 267.216 232.949 290.372 232.949 319.693C232.949 320.381 232.936 321.067 232.908 321.75C232.823 323.987 231.98 326.19 231.622 328.347C231.081 331.636 230.852 334.824 229.729 337.882C222.255 358.244 202.586 372.17 179.5 372.17C149.981 372.17 126.051 349.014 126.051 319.693Z" fill="white"/>
<path fill-rule="evenodd" clip-rule="evenodd" d="M126.362 322.393C127.922 350.577 151.122 372.949 179.587 372.949C202.009 372.949 221.2 359.068 229.102 339.401C231.157 333.978 232.484 327.881 232.874 321.097L232.851 317.339L232.754 317.264C227.434 311.642 221.967 303.937 216.088 298.457C214.687 300.003 211.607 305.06 209.228 305.06C206.287 305.06 201.668 297.615 198.447 297.615C195.509 297.615 191.308 306.887 188.649 306.887C187.669 306.887 187.389 306.745 186.547 305.483C182.349 299.439 178.707 293.117 174.788 287.217C174.647 286.936 172.689 284.126 171.847 284.126C169.748 284.126 161.069 296.77 160.509 297.615C159.529 299.019 158.408 300.423 157.148 301.688C156.868 301.969 156.588 301.969 156.17 301.969C154.627 301.969 152.39 298.596 150.568 298.596C147.847 298.596 129.939 318.683 126.362 322.393Z" fill="#95BB65"/>
<path fill-rule="evenodd" clip-rule="evenodd" d="M151.204 273.991L151.194 273.996L151.186 274.001L151.176 274.006L151.165 274.014L151.158 274.019L151.147 274.027L151.137 274.032L151.127 274.04L151.117 274.045C136.566 283.276 126.832 299.372 126.3 317.8C127.229 316.702 146.515 295.858 150.937 295.858C152.751 295.858 154.425 296.695 156.519 298.934C159.308 295.296 161.959 291.52 164.61 288.16C166.006 286.341 169.774 281.163 172.283 281.163C175.633 281.163 183.727 295.858 184.843 297.677C186.098 299.774 187.494 301.873 189.029 303.834C191.541 300.894 194.749 294.876 198.655 294.876C202.702 294.876 207.865 302.154 209.4 302.154C210.655 302.154 214.004 296.556 215.12 295.716C215.4 295.438 215.818 295.438 216.237 295.438C218.475 295.438 230.026 309.01 232.279 311.604C230.552 299.679 225.037 289.026 216.835 280.998C211.612 276.088 205.494 272.187 199.717 269.737C197.711 268.916 195.639 268.212 193.52 267.638C192.747 267.45 191.995 267.293 191.261 267.172C188.61 266.752 185.818 266.332 183.029 266.051H176.051C173.4 266.332 170.472 266.613 167.959 267.172C165.588 267.731 163.076 268.431 160.843 269.271C159.17 269.83 157.355 270.67 155.959 271.368C154.566 272.069 152.89 273.048 151.635 273.749L151.62 273.756L151.602 273.767L151.589 273.774L151.578 273.78L151.566 273.787L151.553 273.795L151.54 273.803L151.53 273.808L151.517 273.816L151.504 273.823L151.494 273.829L151.484 273.834L151.476 273.839L151.466 273.844L151.458 273.849L151.45 273.852L151.442 273.857L151.437 273.859L151.43 273.865L151.422 273.867L151.414 273.872L151.407 273.875L151.399 273.88L151.394 273.883L151.386 273.888L151.378 273.89L151.371 273.896L151.365 273.898L151.358 273.903L151.353 273.906L151.345 273.911L151.337 273.914L151.33 273.919L151.322 273.924L151.314 273.926L151.306 273.932L151.299 273.934L151.291 273.939L151.283 273.944L151.276 273.947L151.268 273.952L151.26 273.957L151.253 273.963L151.245 273.968L151.237 273.973L151.229 273.978L151.222 273.981L151.211 273.986L151.204 273.991Z" fill="#67CFE5"/>
<path fill-rule="evenodd" clip-rule="evenodd" d="M154.391 338.814C154.391 338.464 154.312 338.309 154.158 338.309C153.27 338.309 152.187 338.814 151.299 338.814C149.831 338.814 149.754 338.075 149.754 335.395V334.151C149.754 322.648 149.946 316.419 150.141 315.556C150.295 314.731 151.725 314.131 153.734 314.131C157.597 314.131 160.106 316.87 160.106 321.185C160.106 325.801 157.366 328.54 152.651 328.54H151.725C151.145 328.54 151.106 328.604 151.106 329.063C151.106 329.552 151.26 329.684 152.42 329.684C159.257 329.684 163.625 325.989 163.625 320.36C163.625 315.669 160.322 312.603 154.081 312.603C150.798 312.603 147.798 313.443 144.406 314.917C143.225 315.406 142.73 315.556 142.73 316.043C142.73 316.305 142.884 316.493 143.035 316.493C143.682 316.493 145.014 315.481 146.382 315.481C146.993 315.481 147.029 316.795 147.029 320.059V322.424C147.029 332.324 146.916 338.232 146.61 339.669C146.42 340.599 145.622 340.834 145.622 341.246C145.622 341.431 145.774 341.619 145.964 341.619C146.23 341.619 147.904 340.641 151.763 339.785C153.773 339.358 154.391 339.551 154.391 338.814Z" fill="black"/>
<path fill-rule="evenodd" clip-rule="evenodd" d="M167.967 331.889C167.929 331.356 167.929 331.049 167.929 330.936C167.929 327.847 169.707 325.711 171.793 325.711C173.069 325.711 173.959 326.587 173.959 327.769C173.959 329.792 171.755 331.508 167.967 331.889ZM168.083 333.301C174.265 331.621 177.401 329.792 177.401 328.38C177.401 325.788 175.489 324.17 172.645 324.17C168.47 324.17 165.203 328.076 165.203 333.262C165.203 338.067 167.651 340.88 172.645 340.88C175.871 340.88 176.331 340.45 177.134 339.471C179.038 337.188 179.875 335.663 179.875 335.243C179.875 334.978 179.646 334.748 179.379 334.748C179.038 334.748 178.848 335.243 178.276 335.931C176.906 337.495 175.489 338.219 173.225 338.219C170.248 338.219 168.47 336.542 168.083 333.301Z" fill="black"/>
<path fill-rule="evenodd" clip-rule="evenodd" d="M192.188 332.015C192.188 332.286 192.227 332.52 192.227 332.755C192.227 336.877 189.758 338.976 186.966 338.976C185.529 338.976 184.571 338.121 184.571 336.877C184.571 334.777 187.245 332.832 192.188 332.015ZM191.831 337.732C192.152 339.839 193.212 340.847 195.103 340.847C196.625 340.847 198.604 340.128 198.604 339.695C198.604 338.938 197.88 339.445 196.777 338.976C195.37 338.314 194.875 336.954 194.875 334.658C194.875 333.26 195.029 331.626 195.029 329.72C195.029 325.776 194.156 324.155 190.317 324.155C186.647 324.155 185.092 324.758 185.092 326.804C185.092 326.997 185.131 327.115 185.251 327.115C185.808 327.115 186.966 326.492 188.801 326.492C191.074 326.492 192.152 327.813 192.152 330.575V331.003C184.892 332.17 181.451 334.893 181.451 338.082C181.451 339.839 182.636 340.847 184.692 340.847C187.125 340.847 189.758 339.767 191.831 337.732Z" fill="black"/>
<path fill-rule="evenodd" clip-rule="evenodd" d="M200.249 339.602C200.249 339.677 200.285 339.942 200.285 340.316C200.285 340.725 200.321 340.839 200.611 340.839C200.721 340.839 201.265 340.465 202.499 339.829C202.936 339.602 202.972 339.45 202.972 338.999V333.265H203.467C203.962 333.265 204.458 333.226 204.95 333.154C209.554 337.83 212.293 340.429 214.879 340.429C216.021 340.429 216.63 340.017 216.63 339.716C216.63 339.226 214.879 338.773 210.504 334.584L207.424 331.675C210.542 328.298 211.797 325.587 211.797 325.142C211.797 324.843 211.569 324.547 211.305 324.547C211.151 324.547 210.239 324.771 208.222 324.882C207.196 324.918 206.852 324.843 206.852 325.402C206.852 325.886 207.044 325.922 207.347 325.922H207.576C208.109 325.922 208.489 326.219 208.489 326.703C208.489 327.146 207.955 328.965 206.701 330.637C205.636 332.01 204.912 332.121 203.772 332.121H202.972V318.366C202.972 316.321 202.972 315.161 203.811 314.466C204.381 314.002 205.027 313.964 205.027 313.51C205.027 313.25 204.837 313.026 204.647 313.026C204.419 313.026 203.467 313.51 201.665 314.002C200.321 314.389 199.982 314.273 199.982 314.891C199.982 315.123 200.249 316.282 200.249 318.675V339.602Z" fill="black"/>
<path fill-rule="evenodd" clip-rule="evenodd" d="M160.743 357.435C157.44 357.435 154.992 354.918 154.992 351.34C154.992 347.815 157.366 345.443 160.671 345.443C163.828 345.443 166.22 347.96 166.22 351.608C166.22 355.114 163.974 357.435 160.743 357.435ZM168.054 351.394C168.054 347.455 165.27 344.711 160.743 344.711C156.216 344.711 153.157 347.545 153.157 351.538C153.157 355.601 155.959 358.172 160.379 358.172C164.995 358.172 168.054 355.475 168.054 351.394Z" fill="white"/>
<path fill-rule="evenodd" clip-rule="evenodd" d="M170.934 357.878C170.934 358.074 170.952 358.2 171.072 358.2C171.108 358.2 171.142 358.2 171.178 358.182L172.166 357.824C172.202 356.982 172.235 355.482 172.235 353.321C172.235 352.826 172.22 352.442 172.22 352.131C172.738 351.6 173.346 351.306 173.939 351.306C175.32 351.306 175.856 352.46 175.856 354.73C175.856 357.074 175.443 358.004 175.443 358.11C175.438 358.301 175.53 358.391 175.656 358.391C175.802 358.391 176.172 358.087 176.983 357.775C177.83 357.458 178.212 357.515 178.212 357.219C178.212 357.051 178.158 356.922 178.048 356.922C177.847 356.922 177.629 357.087 177.429 357.087C177.139 357.087 177.07 356.977 177.07 356.698C177.07 356.162 177.157 355.142 177.157 353.679C177.157 351.456 176.736 350.412 175.312 350.412C174.676 350.412 173.457 350.693 172.058 351.474C171.837 350.657 171.28 350.227 171.126 350.227C171.057 350.227 170.79 350.513 169.989 350.84C169.535 351.02 169.263 351.038 169.263 351.185C169.263 351.368 169.335 351.458 169.445 351.458C169.553 351.458 169.664 351.404 169.807 351.404C170.644 351.404 170.934 352.244 170.934 353.795V357.878Z" fill="white"/>
<path fill-rule="evenodd" clip-rule="evenodd" d="M180.399 354.72C180.399 357.44 180.091 358.18 180.091 358.27C180.091 358.43 180.237 358.571 180.399 358.571C180.612 358.571 180.997 358.089 181.992 357.675C182.719 357.386 183.173 357.386 183.173 357.118C183.173 356.956 183.065 356.83 182.973 356.83C182.883 356.83 182.554 357.01 182.175 357.01C181.738 357.01 181.7 356.577 181.7 355.116V354.091C181.7 349.462 181.72 346.777 181.956 346.02C182.136 345.443 182.772 345.371 182.772 345.172C182.772 345.012 182.665 344.907 182.572 344.907C182.447 344.907 181.956 345.139 180.981 345.353C180.363 345.497 180.255 345.425 180.255 345.713C180.255 345.839 180.381 346.669 180.381 348.253C180.381 348.632 180.399 349.173 180.399 349.91V354.72Z" fill="white"/>
<path fill-rule="evenodd" clip-rule="evenodd" d="M187.173 353.192C187.104 351.551 187.191 350.639 187.191 350.495C187.191 350.368 187.014 350.227 186.912 350.227C186.77 350.227 186.334 350.477 185.513 350.747C184.776 350.984 184.394 350.984 184.394 351.185C184.394 351.386 184.484 351.515 184.612 351.515C184.723 351.515 184.884 351.404 185.066 351.404C185.7 351.332 185.718 351.842 185.718 352.844V357.242C185.718 357.878 185.718 358.2 185.862 358.2C185.88 358.2 186.28 358.059 186.899 357.86C187.081 357.788 187.155 357.698 187.155 357.533C187.155 357.497 187.173 357.407 187.173 357.224V353.192ZM186.247 345.484C185.723 345.484 185.32 345.922 185.32 346.432C185.32 346.94 185.723 347.359 186.247 347.359C186.752 347.359 187.191 346.976 187.191 346.432C187.191 345.922 186.77 345.484 186.247 345.484Z" fill="white"/>
<path fill-rule="evenodd" clip-rule="evenodd" d="M190.623 357.878C190.623 358.074 190.638 358.2 190.761 358.2C190.795 358.2 190.831 358.2 190.864 358.182L191.855 357.824C191.888 356.982 191.924 355.482 191.924 353.321C191.924 352.826 191.906 352.442 191.906 352.131C192.424 351.6 193.035 351.306 193.625 351.306C195.006 351.306 195.542 352.46 195.542 354.73C195.542 357.074 195.132 358.004 195.132 358.11C195.124 358.301 195.216 358.391 195.342 358.391C195.488 358.391 195.861 358.087 196.669 357.775C197.516 357.458 197.898 357.515 197.898 357.219C197.898 357.051 197.844 356.922 197.734 356.922C197.536 356.922 197.318 357.087 197.118 357.087C196.828 357.087 196.756 356.977 196.756 356.698C196.756 356.162 196.843 355.142 196.843 353.679C196.843 351.456 196.423 350.412 194.998 350.412C194.362 350.412 193.145 350.693 191.744 351.474C191.523 350.657 190.969 350.227 190.813 350.227C190.743 350.227 190.476 350.513 189.676 350.84C189.221 351.02 188.949 351.038 188.949 351.185C188.949 351.368 189.021 351.458 189.132 351.458C189.239 351.458 189.35 351.404 189.496 351.404C190.33 351.404 190.623 352.244 190.623 353.795V357.878Z" fill="white"/>
<path fill-rule="evenodd" clip-rule="evenodd" d="M200.459 353.924C200.441 353.669 200.441 353.524 200.441 353.47C200.441 351.994 201.291 350.974 202.286 350.974C202.897 350.974 203.323 351.394 203.323 351.958C203.323 352.924 202.268 353.743 200.459 353.924ZM200.516 354.599C203.467 353.797 204.966 352.924 204.966 352.249C204.966 351.01 204.052 350.237 202.694 350.237C200.7 350.237 199.14 352.102 199.14 354.581C199.14 356.876 200.31 358.218 202.694 358.218C204.237 358.218 204.455 358.015 204.837 357.546C205.748 356.456 206.149 355.727 206.149 355.529C206.149 355.4 206.038 355.292 205.913 355.292C205.748 355.292 205.656 355.529 205.384 355.856C204.73 356.603 204.052 356.948 202.972 356.948C201.55 356.948 200.7 356.147 200.516 354.599Z" fill="white"/>
</svg>
